<?xml version="1.0" encoding="utf-8" standalone="no"?>
<!DOCTYPE svg PUBLIC "-//W3C//DTD SVG 1.1//EN"
  "http://www.w3.org/Graphics/SVG/1.1/DTD/svg11.dtd">
<!-- Created with matplotlib (http://matplotlib.org/) -->
<svg height="144pt" version="1.1" viewBox="0 0 144 144" width="144pt" xmlns="http://www.w3.org/2000/svg" xmlns:xlink="http://www.w3.org/1999/xlink">
 <defs>
  <style type="text/css">
*{stroke-linecap:butt;stroke-linejoin:round;}
  </style>
 </defs>
 <g id="figure_1">
  <g id="patch_1">
   <path d="M 0 144 
L 144 144 
L 144 0 
L 0 0 
z
" style="fill:#ffffff;"/>
  </g>
  <g id="axes_1">
   <g id="patch_2">
    <path d="M 18 128.16 
L 129.6 128.16 
L 129.6 17.28 
L 18 17.28 
z
" style="fill:#ffffff;"/>
   </g>
   <g id="matplotlib.axis_1">
    <g id="xtick_1">
     <g id="line2d_1">
      <path clip-path="url(#p3e4b2267ce)" d="M 31.29094 128.16 
L 31.29094 17.28 
" style="fill:none;opacity:0.75;stroke:#b0b0b0;stroke-dasharray:0.5,0.825;stroke-dashoffset:0;stroke-width:0.5;"/>
     </g>
     <g id="line2d_2">
      <defs>
       <path d="M 0 0 
L 0 3 
" id="m4312f260ab" style="stroke:#000000;stroke-width:0.25;"/>
      </defs>
      <g>
       <use style="stroke:#000000;stroke-width:0.25;" x="31.29094" xlink:href="#m4312f260ab" y="128.16"/>
      </g>
     </g>
    </g>
    <g id="xtick_2">
     <g id="line2d_3">
      <path clip-path="url(#p3e4b2267ce)" d="M 73.8 128.16 
L 73.8 17.28 
" style="fill:none;opacity:0.75;stroke:#b0b0b0;stroke-dasharray:0.5,0.825;stroke-dashoffset:0;stroke-width:0.5;"/>
     </g>
     <g id="line2d_4">
      <g>
       <use style="stroke:#000000;stroke-width:0.25;" x="73.8" xlink:href="#m4312f260ab" y="128.16"/>
      </g>
     </g>
    </g>
    <g id="xtick_3">
     <g id="line2d_5">
      <path clip-path="url(#p3e4b2267ce)" d="M 116.30906 128.16 
L 116.30906 17.28 
" style="fill:none;opacity:0.75;stroke:#b0b0b0;stroke-dasharray:0.5,0.825;stroke-dashoffset:0;stroke-width:0.5;"/>
     </g>
     <g id="line2d_6">
      <g>
       <use style="stroke:#000000;stroke-width:0.25;" x="116.30906" xlink:href="#m4312f260ab" y="128.16"/>
      </g>
     </g>
    </g>
    <g id="text_1">
     <!-- Real -->
     <defs>
      <path d="M 47.90625 36.1875 
Q 51.3125 35.25 53.78125 33.03125 
Q 56.25 30.8125 58.203125 26.8125 
L 68.796875 5.171875 
L 77.6875 5.171875 
L 77.6875 0 
L 60.5 0 
L 49.125 23.1875 
Q 45.84375 29.9375 43.109375 31.90625 
Q 40.375 33.890625 35.59375 33.890625 
L 24.703125 33.890625 
L 24.703125 5.171875 
L 35.015625 5.171875 
L 35.015625 0 
L 5.515625 0 
L 5.515625 5.171875 
L 14.796875 5.171875 
L 14.796875 67.671875 
L 5.515625 67.671875 
L 5.515625 72.90625 
L 42.484375 72.90625 
Q 53.125 72.90625 58.90625 67.828125 
Q 64.703125 62.75 64.703125 53.421875 
Q 64.703125 45.90625 60.46875 41.578125 
Q 56.25 37.25 47.90625 36.1875 
z
M 24.703125 39.109375 
L 39.109375 39.109375 
Q 46.484375 39.109375 50 42.59375 
Q 53.515625 46.09375 53.515625 53.421875 
Q 53.515625 60.75 50 64.203125 
Q 46.484375 67.671875 39.109375 67.671875 
L 24.703125 67.671875 
z
" id="DejaVuSerif-52"/>
      <path d="M 54.203125 25 
L 15.484375 25 
L 15.484375 24.609375 
Q 15.484375 14.109375 19.4375 8.765625 
Q 23.390625 3.421875 31.109375 3.421875 
Q 37.015625 3.421875 40.796875 6.515625 
Q 44.578125 9.625 46.09375 15.71875 
L 53.328125 15.71875 
Q 51.171875 7.171875 45.375 2.875 
Q 39.59375 -1.421875 30.171875 -1.421875 
Q 18.796875 -1.421875 11.890625 6.078125 
Q 4.984375 13.578125 4.984375 25.984375 
Q 4.984375 38.28125 11.765625 45.796875 
Q 18.5625 53.328125 29.59375 53.328125 
Q 41.359375 53.328125 47.65625 46.0625 
Q 53.953125 38.8125 54.203125 25 
z
M 43.609375 30.171875 
Q 43.3125 39.265625 39.765625 43.875 
Q 36.234375 48.484375 29.59375 48.484375 
Q 23.390625 48.484375 19.828125 43.84375 
Q 16.265625 39.203125 15.484375 30.171875 
z
" id="DejaVuSerif-65"/>
      <path d="M 39.796875 16.3125 
L 39.796875 27.296875 
L 28.21875 27.296875 
Q 21.53125 27.296875 18.25 24.40625 
Q 14.984375 21.53125 14.984375 15.578125 
Q 14.984375 10.15625 18.296875 6.984375 
Q 21.625 3.8125 27.296875 3.8125 
Q 32.90625 3.8125 36.34375 7.28125 
Q 39.796875 10.75 39.796875 16.3125 
z
M 48.78125 32.421875 
L 48.78125 5.171875 
L 56.78125 5.171875 
L 56.78125 0 
L 39.796875 0 
L 39.796875 5.609375 
Q 36.8125 2 32.90625 0.28125 
Q 29 -1.421875 23.78125 -1.421875 
Q 15.140625 -1.421875 10.0625 3.171875 
Q 4.984375 7.765625 4.984375 15.578125 
Q 4.984375 23.640625 10.796875 28.078125 
Q 16.609375 32.515625 27.203125 32.515625 
L 39.796875 32.515625 
L 39.796875 36.078125 
Q 39.796875 42 36.203125 45.234375 
Q 32.625 48.484375 26.125 48.484375 
Q 20.75 48.484375 17.578125 46.046875 
Q 14.40625 43.609375 13.625 38.8125 
L 8.984375 38.8125 
L 8.984375 49.3125 
Q 13.671875 51.3125 18.09375 52.3125 
Q 22.515625 53.328125 26.703125 53.328125 
Q 37.5 53.328125 43.140625 47.96875 
Q 48.78125 42.625 48.78125 32.421875 
z
" id="DejaVuSerif-61"/>
      <path d="M 20.515625 5.171875 
L 29 5.171875 
L 29 0 
L 2.875 0 
L 2.875 5.171875 
L 11.53125 5.171875 
L 11.53125 70.796875 
L 2.875 70.796875 
L 2.875 75.984375 
L 20.515625 75.984375 
z
" id="DejaVuSerif-6c"/>
     </defs>
     <g transform="translate(63.625781 138.498594)scale(0.09 -0.09)">
      <use xlink:href="#DejaVuSerif-52"/>
      <use x="75.292969" xlink:href="#DejaVuSerif-65"/>
      <use x="134.472656" xlink:href="#DejaVuSerif-61"/>
      <use x="194.091797" xlink:href="#DejaVuSerif-6c"/>
     </g>
    </g>
   </g>
   <g id="matplotlib.axis_2">
    <g id="ytick_1">
     <g id="line2d_7">
      <path clip-path="url(#p3e4b2267ce)" d="M 18 117.74426 
L 129.6 117.74426 
" style="fill:none;opacity:0.75;stroke:#b0b0b0;stroke-dasharray:0.5,0.825;stroke-dashoffset:0;stroke-width:0.5;"/>
     </g>
     <g id="line2d_8">
      <defs>
       <path d="M 0 0 
L -3 0 
" id="mb9cc7d96c8" style="stroke:#000000;stroke-width:0.25;"/>
      </defs>
      <g>
       <use style="stroke:#000000;stroke-width:0.25;" x="18" xlink:href="#mb9cc7d96c8" y="117.74426"/>
      </g>
     </g>
    </g>
    <g id="ytick_2">
     <g id="line2d_9">
      <path clip-path="url(#p3e4b2267ce)" d="M 18 95.23213 
L 129.6 95.23213 
" style="fill:none;opacity:0.75;stroke:#b0b0b0;stroke-dasharray:0.5,0.825;stroke-dashoffset:0;stroke-width:0.5;"/>
     </g>
     <g id="line2d_10">
      <g>
       <use style="stroke:#000000;stroke-width:0.25;" x="18" xlink:href="#mb9cc7d96c8" y="95.23213"/>
      </g>
     </g>
    </g>
    <g id="ytick_3">
     <g id="line2d_11">
      <path clip-path="url(#p3e4b2267ce)" d="M 18 72.72 
L 129.6 72.72 
" style="fill:none;opacity:0.75;stroke:#b0b0b0;stroke-dasharray:0.5,0.825;stroke-dashoffset:0;stroke-width:0.5;"/>
     </g>
     <g id="line2d_12">
      <g>
       <use style="stroke:#000000;stroke-width:0.25;" x="18" xlink:href="#mb9cc7d96c8" y="72.72"/>
      </g>
     </g>
    </g>
    <g id="ytick_4">
     <g id="line2d_13">
      <path clip-path="url(#p3e4b2267ce)" d="M 18 50.20787 
L 129.6 50.20787 
" style="fill:none;opacity:0.75;stroke:#b0b0b0;stroke-dasharray:0.5,0.825;stroke-dashoffset:0;stroke-width:0.5;"/>
     </g>
     <g id="line2d_14">
      <g>
       <use style="stroke:#000000;stroke-width:0.25;" x="18" xlink:href="#mb9cc7d96c8" y="50.20787"/>
      </g>
     </g>
    </g>
    <g id="ytick_5">
     <g id="line2d_15">
      <path clip-path="url(#p3e4b2267ce)" d="M 18 27.69574 
L 129.6 27.69574 
" style="fill:none;opacity:0.75;stroke:#b0b0b0;stroke-dasharray:0.5,0.825;stroke-dashoffset:0;stroke-width:0.5;"/>
     </g>
     <g id="line2d_16">
      <g>
       <use style="stroke:#000000;stroke-width:0.25;" x="18" xlink:href="#mb9cc7d96c8" y="27.69574"/>
      </g>
     </g>
    </g>
    <g id="text_2">
     <!-- Imaginary -->
     <defs>
      <path d="M 24.703125 5.171875 
L 33.984375 5.171875 
L 33.984375 0 
L 5.515625 0 
L 5.515625 5.171875 
L 14.796875 5.171875 
L 14.796875 67.671875 
L 5.515625 67.671875 
L 5.515625 72.90625 
L 33.984375 72.90625 
L 33.984375 67.671875 
L 24.703125 67.671875 
z
" id="DejaVuSerif-49"/>
      <path d="M 51.8125 41.796875 
Q 54.390625 47.515625 58.421875 50.421875 
Q 62.453125 53.328125 67.828125 53.328125 
Q 75.984375 53.328125 79.984375 48.265625 
Q 83.984375 43.21875 83.984375 33.015625 
L 83.984375 5.171875 
L 92.09375 5.171875 
L 92.09375 0 
L 67.1875 0 
L 67.1875 5.171875 
L 75 5.171875 
L 75 31.984375 
Q 75 39.9375 72.65625 43.3125 
Q 70.3125 46.6875 64.890625 46.6875 
Q 58.890625 46.6875 55.734375 42.140625 
Q 52.59375 37.59375 52.59375 28.90625 
L 52.59375 5.171875 
L 60.40625 5.171875 
L 60.40625 0 
L 35.796875 0 
L 35.796875 5.171875 
L 43.609375 5.171875 
L 43.609375 32.328125 
Q 43.609375 40.09375 41.265625 43.390625 
Q 38.921875 46.6875 33.5 46.6875 
Q 27.484375 46.6875 24.328125 42.140625 
Q 21.1875 37.59375 21.1875 28.90625 
L 21.1875 5.171875 
L 29 5.171875 
L 29 0 
L 4.109375 0 
L 4.109375 5.171875 
L 12.203125 5.171875 
L 12.203125 46.78125 
L 3.609375 46.78125 
L 3.609375 51.90625 
L 21.1875 51.90625 
L 21.1875 42.671875 
Q 23.6875 47.859375 27.53125 50.59375 
Q 31.390625 53.328125 36.28125 53.328125 
Q 42.328125 53.328125 46.375 50.3125 
Q 50.4375 47.3125 51.8125 41.796875 
z
" id="DejaVuSerif-6d"/>
      <path d="M 52.484375 46.6875 
L 52.484375 1.125 
Q 52.484375 -10.0625 46.328125 -16.140625 
Q 40.1875 -22.21875 28.8125 -22.21875 
Q 23.6875 -22.21875 19 -21.28125 
Q 14.3125 -20.359375 10.015625 -18.5 
L 10.015625 -7.625 
L 14.703125 -7.625 
Q 15.578125 -12.703125 18.84375 -15.046875 
Q 22.125 -17.390625 28.21875 -17.390625 
Q 36.140625 -17.390625 39.8125 -12.921875 
Q 43.5 -8.453125 43.5 1.125 
L 43.5 8.109375 
Q 40.875 3.21875 36.796875 0.890625 
Q 32.71875 -1.421875 26.703125 -1.421875 
Q 17.140625 -1.421875 11.0625 6.171875 
Q 4.984375 13.765625 4.984375 25.984375 
Q 4.984375 38.1875 11.03125 45.75 
Q 17.09375 53.328125 26.703125 53.328125 
Q 32.71875 53.328125 36.796875 51 
Q 40.875 48.6875 43.5 43.796875 
L 43.5 51.90625 
L 61.078125 51.90625 
L 61.078125 46.6875 
z
M 43.5 28.515625 
Q 43.5 37.84375 39.90625 42.765625 
Q 36.328125 47.703125 29.5 47.703125 
Q 22.5625 47.703125 19.015625 42.234375 
Q 15.484375 36.765625 15.484375 25.984375 
Q 15.484375 15.234375 19.015625 9.71875 
Q 22.5625 4.203125 29.5 4.203125 
Q 36.328125 4.203125 39.90625 9.109375 
Q 43.5 14.015625 43.5 23.390625 
z
" id="DejaVuSerif-67"/>
      <path d="M 9.71875 68.015625 
Q 9.71875 70.265625 11.34375 71.921875 
Q 12.984375 73.578125 15.28125 73.578125 
Q 17.53125 73.578125 19.15625 71.921875 
Q 20.796875 70.265625 20.796875 68.015625 
Q 20.796875 65.71875 19.1875 64.109375 
Q 17.578125 62.5 15.28125 62.5 
Q 12.984375 62.5 11.34375 64.109375 
Q 9.71875 65.71875 9.71875 68.015625 
z
M 21.1875 5.171875 
L 29.6875 5.171875 
L 29.6875 0 
L 3.609375 0 
L 3.609375 5.171875 
L 12.203125 5.171875 
L 12.203125 46.6875 
L 3.609375 46.6875 
L 3.609375 51.90625 
L 21.1875 51.90625 
z
" id="DejaVuSerif-69"/>
      <path d="M 4.109375 0 
L 4.109375 5.171875 
L 12.203125 5.171875 
L 12.203125 46.6875 
L 3.609375 46.6875 
L 3.609375 51.90625 
L 21.1875 51.90625 
L 21.1875 42.671875 
Q 23.6875 47.953125 27.65625 50.640625 
Q 31.640625 53.328125 36.921875 53.328125 
Q 45.515625 53.328125 49.5625 48.390625 
Q 53.609375 43.453125 53.609375 33.015625 
L 53.609375 5.171875 
L 61.625 5.171875 
L 61.625 0 
L 36.8125 0 
L 36.8125 5.171875 
L 44.578125 5.171875 
L 44.578125 30.171875 
Q 44.578125 39.703125 42.234375 43.234375 
Q 39.890625 46.78125 33.984375 46.78125 
Q 27.734375 46.78125 24.453125 42.203125 
Q 21.1875 37.640625 21.1875 28.90625 
L 21.1875 5.171875 
L 29 5.171875 
L 29 0 
z
" id="DejaVuSerif-6e"/>
      <path d="M 47.796875 52 
L 47.796875 39.015625 
L 42.625 39.015625 
Q 42.390625 42.875 40.484375 44.78125 
Q 38.578125 46.6875 34.90625 46.6875 
Q 28.265625 46.6875 24.71875 42.09375 
Q 21.1875 37.5 21.1875 28.90625 
L 21.1875 5.171875 
L 31.59375 5.171875 
L 31.59375 0 
L 4.109375 0 
L 4.109375 5.171875 
L 12.203125 5.171875 
L 12.203125 46.78125 
L 3.609375 46.78125 
L 3.609375 51.90625 
L 21.1875 51.90625 
L 21.1875 42.671875 
Q 23.828125 48.09375 27.96875 50.703125 
Q 32.125 53.328125 38.09375 53.328125 
Q 40.28125 53.328125 42.703125 52.984375 
Q 45.125 52.640625 47.796875 52 
z
" id="DejaVuSerif-72"/>
      <path d="M 21.578125 -9.515625 
L 25 -0.875 
L 5.609375 46.6875 
L -0.296875 46.6875 
L -0.296875 51.90625 
L 23.578125 51.90625 
L 23.578125 46.6875 
L 15.28125 46.6875 
L 29.890625 10.984375 
L 44.484375 46.6875 
L 36.71875 46.6875 
L 36.71875 51.90625 
L 56.203125 51.90625 
L 56.203125 46.6875 
L 50.390625 46.6875 
L 26.609375 -11.71875 
Q 24.171875 -17.78125 21.1875 -20 
Q 18.21875 -22.21875 12.796875 -22.21875 
Q 10.5 -22.21875 8.078125 -21.828125 
Q 5.671875 -21.4375 3.21875 -20.703125 
L 3.21875 -10.796875 
L 7.8125 -10.796875 
Q 8.109375 -14.109375 9.5 -15.546875 
Q 10.890625 -17 13.8125 -17 
Q 16.5 -17 18.140625 -15.5 
Q 19.78125 -14.015625 21.578125 -9.515625 
z
" id="DejaVuSerif-79"/>
     </defs>
     <g transform="translate(12.500312 96.042656)rotate(-90)scale(0.09 -0.09)">
      <use xlink:href="#DejaVuSerif-49"/>
      <use x="39.501953" xlink:href="#DejaVuSerif-6d"/>
      <use x="134.326172" xlink:href="#DejaVuSerif-61"/>
      <use x="193.945312" xlink:href="#DejaVuSerif-67"/>
      <use x="257.958984" xlink:href="#DejaVuSerif-69"/>
      <use x="289.941406" xlink:href="#DejaVuSerif-6e"/>
      <use x="354.345703" xlink:href="#DejaVuSerif-61"/>
      <use x="413.964844" xlink:href="#DejaVuSerif-72"/>
      <use x="461.767578" xlink:href="#DejaVuSerif-79"/>
     </g>
    </g>
   </g>
   <g id="line2d_17">
    <defs>
     <path d="M 0 1.5 
C 0.397805 1.5 0.77937 1.341951 1.06066 1.06066 
C 1.341951 0.77937 1.5 0.397805 1.5 0 
C 1.5 -0.397805 1.341951 -0.77937 1.06066 -1.06066 
C 0.77937 -1.341951 0.397805 -1.5 0 -1.5 
C -0.397805 -1.5 -0.77937 -1.341951 -1.06066 -1.06066 
C -1.341951 -0.77937 -1.5 -0.397805 -1.5 0 
C -1.5 0.397805 -1.341951 0.77937 -1.06066 1.06066 
C -0.77937 1.341951 -0.397805 1.5 0 1.5 
z
" id="m9aa8b38af7" style="stroke:#000000;stroke-width:0.25;"/>
    </defs>
    <g clip-path="url(#p3e4b2267ce)">
     <use style="fill:#9467bd;stroke:#000000;stroke-width:0.25;" x="73.8" xlink:href="#m9aa8b38af7" y="72.72"/>
     <use style="fill:#9467bd;stroke:#000000;stroke-width:0.25;" x="63.660466" xlink:href="#m9aa8b38af7" y="75.29538"/>
     <use style="fill:#9467bd;stroke:#000000;stroke-width:0.25;" x="54.415267" xlink:href="#m9aa8b38af7" y="78.12689"/>
     <use style="fill:#9467bd;stroke:#000000;stroke-width:0.25;" x="46.174994" xlink:href="#m9aa8b38af7" y="81.196401"/>
     <use style="fill:#9467bd;stroke:#000000;stroke-width:0.25;" x="39.043747" xlink:href="#m9aa8b38af7" y="84.483073"/>
     <use style="fill:#9467bd;stroke:#000000;stroke-width:0.25;" x="33.117994" xlink:href="#m9aa8b38af7" y="87.963487"/>
     <use style="fill:#9467bd;stroke:#000000;stroke-width:0.25;" x="28.485472" xlink:href="#m9aa8b38af7" y="91.611813"/>
     <use style="fill:#9467bd;stroke:#000000;stroke-width:0.25;" x="25.224167" xlink:href="#m9aa8b38af7" y="95.4"/>
     <use style="fill:#9467bd;stroke:#000000;stroke-width:0.25;" x="23.401354" xlink:href="#m9aa8b38af7" y="99.297989"/>
     <use style="fill:#9467bd;stroke:#000000;stroke-width:0.25;" x="23.072727" xlink:href="#m9aa8b38af7" y="103.273955"/>
     <use style="fill:#9467bd;stroke:#000000;stroke-width:0.25;" x="24.281619" xlink:href="#m9aa8b38af7" y="107.294562"/>
     <use style="fill:#9467bd;stroke:#000000;stroke-width:0.25;" x="27.058324" xlink:href="#m9aa8b38af7" y="111.325247"/>
     <use style="fill:#9467bd;stroke:#000000;stroke-width:0.25;" x="31.419535" xlink:href="#m9aa8b38af7" y="115.330512"/>
     <use style="fill:#9467bd;stroke:#000000;stroke-width:0.25;" x="37.367894" xlink:href="#m9aa8b38af7" y="119.274237"/>
     <use style="fill:#9467bd;stroke:#000000;stroke-width:0.25;" x="44.891662" xlink:href="#m9aa8b38af7" y="123.12"/>
     <use style="fill:#9467bd;stroke:#000000;stroke-width:0.25;" x="83.939534" xlink:href="#m9aa8b38af7" y="70.14462"/>
     <use style="fill:#9467bd;stroke:#000000;stroke-width:0.25;" x="73.8" xlink:href="#m9aa8b38af7" y="72.72"/>
     <use style="fill:#9467bd;stroke:#000000;stroke-width:0.25;" x="64.5548" xlink:href="#m9aa8b38af7" y="75.55151"/>
     <use style="fill:#9467bd;stroke:#000000;stroke-width:0.25;" x="56.314527" xlink:href="#m9aa8b38af7" y="78.621022"/>
     <use style="fill:#9467bd;stroke:#000000;stroke-width:0.25;" x="49.183281" xlink:href="#m9aa8b38af7" y="81.907693"/>
     <use style="fill:#9467bd;stroke:#000000;stroke-width:0.25;" x="43.257527" xlink:href="#m9aa8b38af7" y="85.388107"/>
     <use style="fill:#9467bd;stroke:#000000;stroke-width:0.25;" x="38.625005" xlink:href="#m9aa8b38af7" y="89.036433"/>
     <use style="fill:#9467bd;stroke:#000000;stroke-width:0.25;" x="35.3637" xlink:href="#m9aa8b38af7" y="92.82462"/>
     <use style="fill:#9467bd;stroke:#000000;stroke-width:0.25;" x="33.540888" xlink:href="#m9aa8b38af7" y="96.72261"/>
     <use style="fill:#9467bd;stroke:#000000;stroke-width:0.25;" x="33.212261" xlink:href="#m9aa8b38af7" y="100.698576"/>
     <use style="fill:#9467bd;stroke:#000000;stroke-width:0.25;" x="34.421152" xlink:href="#m9aa8b38af7" y="104.719183"/>
     <use style="fill:#9467bd;stroke:#000000;stroke-width:0.25;" x="37.197857" xlink:href="#m9aa8b38af7" y="108.749867"/>
     <use style="fill:#9467bd;stroke:#000000;stroke-width:0.25;" x="41.559069" xlink:href="#m9aa8b38af7" y="112.755132"/>
     <use style="fill:#9467bd;stroke:#000000;stroke-width:0.25;" x="47.507427" xlink:href="#m9aa8b38af7" y="116.698857"/>
     <use style="fill:#9467bd;stroke:#000000;stroke-width:0.25;" x="55.031196" xlink:href="#m9aa8b38af7" y="120.54462"/>
     <use style="fill:#9467bd;stroke:#000000;stroke-width:0.25;" x="93.184733" xlink:href="#m9aa8b38af7" y="67.31311"/>
     <use style="fill:#9467bd;stroke:#000000;stroke-width:0.25;" x="83.0452" xlink:href="#m9aa8b38af7" y="69.88849"/>
     <use style="fill:#9467bd;stroke:#000000;stroke-width:0.25;" x="73.8" xlink:href="#m9aa8b38af7" y="72.72"/>
     <use style="fill:#9467bd;stroke:#000000;stroke-width:0.25;" x="65.559727" xlink:href="#m9aa8b38af7" y="75.789512"/>
     <use style="fill:#9467bd;stroke:#000000;stroke-width:0.25;" x="58.428481" xlink:href="#m9aa8b38af7" y="79.076183"/>
     <use style="fill:#9467bd;stroke:#000000;stroke-width:0.25;" x="52.502727" xlink:href="#m9aa8b38af7" y="82.556597"/>
     <use style="fill:#9467bd;stroke:#000000;stroke-width:0.25;" x="47.870205" xlink:href="#m9aa8b38af7" y="86.204923"/>
     <use style="fill:#9467bd;stroke:#000000;stroke-width:0.25;" x="44.6089" xlink:href="#m9aa8b38af7" y="89.99311"/>
     <use style="fill:#9467bd;stroke:#000000;stroke-width:0.25;" x="42.786088" xlink:href="#m9aa8b38af7" y="93.8911"/>
     <use style="fill:#9467bd;stroke:#000000;stroke-width:0.25;" x="42.457461" xlink:href="#m9aa8b38af7" y="97.867065"/>
     <use style="fill:#9467bd;stroke:#000000;stroke-width:0.25;" x="43.666352" xlink:href="#m9aa8b38af7" y="101.887673"/>
     <use style="fill:#9467bd;stroke:#000000;stroke-width:0.25;" x="46.443057" xlink:href="#m9aa8b38af7" y="105.918357"/>
     <use style="fill:#9467bd;stroke:#000000;stroke-width:0.25;" x="50.804269" xlink:href="#m9aa8b38af7" y="109.923622"/>
     <use style="fill:#9467bd;stroke:#000000;stroke-width:0.25;" x="56.752627" xlink:href="#m9aa8b38af7" y="113.867347"/>
     <use style="fill:#9467bd;stroke:#000000;stroke-width:0.25;" x="64.276395" xlink:href="#m9aa8b38af7" y="117.71311"/>
     <use style="fill:#9467bd;stroke:#000000;stroke-width:0.25;" x="101.425006" xlink:href="#m9aa8b38af7" y="64.243599"/>
     <use style="fill:#9467bd;stroke:#000000;stroke-width:0.25;" x="91.285473" xlink:href="#m9aa8b38af7" y="66.818978"/>
     <use style="fill:#9467bd;stroke:#000000;stroke-width:0.25;" x="82.040273" xlink:href="#m9aa8b38af7" y="69.650488"/>
     <use style="fill:#9467bd;stroke:#000000;stroke-width:0.25;" x="73.8" xlink:href="#m9aa8b38af7" y="72.72"/>
     <use style="fill:#9467bd;stroke:#000000;stroke-width:0.25;" x="66.668754" xlink:href="#m9aa8b38af7" y="76.006672"/>
     <use style="fill:#9467bd;stroke:#000000;stroke-width:0.25;" x="60.743" xlink:href="#m9aa8b38af7" y="79.487085"/>
     <use style="fill:#9467bd;stroke:#000000;stroke-width:0.25;" x="56.110478" xlink:href="#m9aa8b38af7" y="83.135412"/>
     <use style="fill:#9467bd;stroke:#000000;stroke-width:0.25;" x="52.849173" xlink:href="#m9aa8b38af7" y="86.923599"/>
     <use style="fill:#9467bd;stroke:#000000;stroke-width:0.25;" x="51.026361" xlink:href="#m9aa8b38af7" y="90.821588"/>
     <use style="fill:#9467bd;stroke:#000000;stroke-width:0.25;" x="50.697734" xlink:href="#m9aa8b38af7" y="94.797554"/>
     <use style="fill:#9467bd;stroke:#000000;stroke-width:0.25;" x="51.906625" xlink:href="#m9aa8b38af7" y="98.818161"/>
     <use style="fill:#9467bd;stroke:#000000;stroke-width:0.25;" x="54.68333" xlink:href="#m9aa8b38af7" y="102.848846"/>
     <use style="fill:#9467bd;stroke:#000000;stroke-width:0.25;" x="59.044542" xlink:href="#m9aa8b38af7" y="106.854111"/>
     <use style="fill:#9467bd;stroke:#000000;stroke-width:0.25;" x="64.9929" xlink:href="#m9aa8b38af7" y="110.797835"/>
     <use style="fill:#9467bd;stroke:#000000;stroke-width:0.25;" x="72.516669" xlink:href="#m9aa8b38af7" y="114.643599"/>
     <use style="fill:#9467bd;stroke:#000000;stroke-width:0.25;" x="108.556253" xlink:href="#m9aa8b38af7" y="60.956927"/>
     <use style="fill:#9467bd;stroke:#000000;stroke-width:0.25;" x="98.416719" xlink:href="#m9aa8b38af7" y="63.532307"/>
     <use style="fill:#9467bd;stroke:#000000;stroke-width:0.25;" x="89.171519" xlink:href="#m9aa8b38af7" y="66.363817"/>
     <use style="fill:#9467bd;stroke:#000000;stroke-width:0.25;" x="80.931246" xlink:href="#m9aa8b38af7" y="69.433328"/>
     <use style="fill:#9467bd;stroke:#000000;stroke-width:0.25;" x="73.8" xlink:href="#m9aa8b38af7" y="72.72"/>
     <use style="fill:#9467bd;stroke:#000000;stroke-width:0.25;" x="67.874246" xlink:href="#m9aa8b38af7" y="76.200414"/>
     <use style="fill:#9467bd;stroke:#000000;stroke-width:0.25;" x="63.241724" xlink:href="#m9aa8b38af7" y="79.84874"/>
     <use style="fill:#9467bd;stroke:#000000;stroke-width:0.25;" x="59.980419" xlink:href="#m9aa8b38af7" y="83.636927"/>
     <use style="fill:#9467bd;stroke:#000000;stroke-width:0.25;" x="58.157607" xlink:href="#m9aa8b38af7" y="87.534917"/>
     <use style="fill:#9467bd;stroke:#000000;stroke-width:0.25;" x="57.82898" xlink:href="#m9aa8b38af7" y="91.510882"/>
     <use style="fill:#9467bd;stroke:#000000;stroke-width:0.25;" x="59.037871" xlink:href="#m9aa8b38af7" y="95.531489"/>
     <use style="fill:#9467bd;stroke:#000000;stroke-width:0.25;" x="61.814576" xlink:href="#m9aa8b38af7" y="99.562174"/>
     <use style="fill:#9467bd;stroke:#000000;stroke-width:0.25;" x="66.175788" xlink:href="#m9aa8b38af7" y="103.567439"/>
     <use style="fill:#9467bd;stroke:#000000;stroke-width:0.25;" x="72.124146" xlink:href="#m9aa8b38af7" y="107.511164"/>
     <use style="fill:#9467bd;stroke:#000000;stroke-width:0.25;" x="79.647915" xlink:href="#m9aa8b38af7" y="111.356927"/>
     <use style="fill:#9467bd;stroke:#000000;stroke-width:0.25;" x="114.482006" xlink:href="#m9aa8b38af7" y="57.476513"/>
     <use style="fill:#9467bd;stroke:#000000;stroke-width:0.25;" x="104.342473" xlink:href="#m9aa8b38af7" y="60.051893"/>
     <use style="fill:#9467bd;stroke:#000000;stroke-width:0.25;" x="95.097273" xlink:href="#m9aa8b38af7" y="62.883403"/>
     <use style="fill:#9467bd;stroke:#000000;stroke-width:0.25;" x="86.857" xlink:href="#m9aa8b38af7" y="65.952915"/>
     <use style="fill:#9467bd;stroke:#000000;stroke-width:0.25;" x="79.725754" xlink:href="#m9aa8b38af7" y="69.239586"/>
     <use style="fill:#9467bd;stroke:#000000;stroke-width:0.25;" x="73.8" xlink:href="#m9aa8b38af7" y="72.72"/>
     <use style="fill:#9467bd;stroke:#000000;stroke-width:0.25;" x="69.167478" xlink:href="#m9aa8b38af7" y="76.368326"/>
     <use style="fill:#9467bd;stroke:#000000;stroke-width:0.25;" x="65.906173" xlink:href="#m9aa8b38af7" y="80.156513"/>
     <use style="fill:#9467bd;stroke:#000000;stroke-width:0.25;" x="64.083361" xlink:href="#m9aa8b38af7" y="84.054503"/>
     <use style="fill:#9467bd;stroke:#000000;stroke-width:0.25;" x="63.754734" xlink:href="#m9aa8b38af7" y="88.030468"/>
     <use style="fill:#9467bd;stroke:#000000;stroke-width:0.25;" x="64.963625" xlink:href="#m9aa8b38af7" y="92.051075"/>
     <use style="fill:#9467bd;stroke:#000000;stroke-width:0.25;" x="67.74033" xlink:href="#m9aa8b38af7" y="96.08176"/>
     <use style="fill:#9467bd;stroke:#000000;stroke-width:0.25;" x="72.101542" xlink:href="#m9aa8b38af7" y="100.087025"/>
     <use style="fill:#9467bd;stroke:#000000;stroke-width:0.25;" x="78.0499" xlink:href="#m9aa8b38af7" y="104.03075"/>
     <use style="fill:#9467bd;stroke:#000000;stroke-width:0.25;" x="85.573669" xlink:href="#m9aa8b38af7" y="107.876513"/>
     <use style="fill:#9467bd;stroke:#000000;stroke-width:0.25;" x="119.114528" xlink:href="#m9aa8b38af7" y="53.828187"/>
     <use style="fill:#9467bd;stroke:#000000;stroke-width:0.25;" x="108.974995" xlink:href="#m9aa8b38af7" y="56.403567"/>
     <use style="fill:#9467bd;stroke:#000000;stroke-width:0.25;" x="99.729795" xlink:href="#m9aa8b38af7" y="59.235077"/>
     <use style="fill:#9467bd;stroke:#000000;stroke-width:0.25;" x="91.489522" xlink:href="#m9aa8b38af7" y="62.304588"/>
     <use style="fill:#9467bd;stroke:#000000;stroke-width:0.25;" x="84.358276" xlink:href="#m9aa8b38af7" y="65.59126"/>
     <use style="fill:#9467bd;stroke:#000000;stroke-width:0.25;" x="78.432522" xlink:href="#m9aa8b38af7" y="69.071674"/>
     <use style="fill:#9467bd;stroke:#000000;stroke-width:0.25;" x="73.8" xlink:href="#m9aa8b38af7" y="72.72"/>
     <use style="fill:#9467bd;stroke:#000000;stroke-width:0.25;" x="70.538695" xlink:href="#m9aa8b38af7" y="76.508187"/>
     <use style="fill:#9467bd;stroke:#000000;stroke-width:0.25;" x="68.715883" xlink:href="#m9aa8b38af7" y="80.406176"/>
     <use style="fill:#9467bd;stroke:#000000;stroke-width:0.25;" x="68.387256" xlink:href="#m9aa8b38af7" y="84.382142"/>
     <use style="fill:#9467bd;stroke:#000000;stroke-width:0.25;" x="69.596147" xlink:href="#m9aa8b38af7" y="88.402749"/>
     <use style="fill:#9467bd;stroke:#000000;stroke-width:0.25;" x="72.372852" xlink:href="#m9aa8b38af7" y="92.433434"/>
     <use style="fill:#9467bd;stroke:#000000;stroke-width:0.25;" x="76.734064" xlink:href="#m9aa8b38af7" y="96.438699"/>
     <use style="fill:#9467bd;stroke:#000000;stroke-width:0.25;" x="82.682422" xlink:href="#m9aa8b38af7" y="100.382424"/>
     <use style="fill:#9467bd;stroke:#000000;stroke-width:0.25;" x="90.206191" xlink:href="#m9aa8b38af7" y="104.228187"/>
     <use style="fill:#9467bd;stroke:#000000;stroke-width:0.25;" x="122.375833" xlink:href="#m9aa8b38af7" y="50.04"/>
     <use style="fill:#9467bd;stroke:#000000;stroke-width:0.25;" x="112.2363" xlink:href="#m9aa8b38af7" y="52.61538"/>
     <use style="fill:#9467bd;stroke:#000000;stroke-width:0.25;" x="102.9911" xlink:href="#m9aa8b38af7" y="55.44689"/>
     <use style="fill:#9467bd;stroke:#000000;stroke-width:0.25;" x="94.750827" xlink:href="#m9aa8b38af7" y="58.516401"/>
     <use style="fill:#9467bd;stroke:#000000;stroke-width:0.25;" x="87.619581" xlink:href="#m9aa8b38af7" y="61.803073"/>
     <use style="fill:#9467bd;stroke:#000000;stroke-width:0.25;" x="81.693827" xlink:href="#m9aa8b38af7" y="65.283487"/>
     <use style="fill:#9467bd;stroke:#000000;stroke-width:0.25;" x="77.061305" xlink:href="#m9aa8b38af7" y="68.931813"/>
     <use style="fill:#9467bd;stroke:#000000;stroke-width:0.25;" x="73.8" xlink:href="#m9aa8b38af7" y="72.72"/>
     <use style="fill:#9467bd;stroke:#000000;stroke-width:0.25;" x="71.977187" xlink:href="#m9aa8b38af7" y="76.617989"/>
     <use style="fill:#9467bd;stroke:#000000;stroke-width:0.25;" x="71.64856" xlink:href="#m9aa8b38af7" y="80.593955"/>
     <use style="fill:#9467bd;stroke:#000000;stroke-width:0.25;" x="72.857452" xlink:href="#m9aa8b38af7" y="84.614562"/>
     <use style="fill:#9467bd;stroke:#000000;stroke-width:0.25;" x="75.634157" xlink:href="#m9aa8b38af7" y="88.645247"/>
     <use style="fill:#9467bd;stroke:#000000;stroke-width:0.25;" x="79.995368" xlink:href="#m9aa8b38af7" y="92.650512"/>
     <use style="fill:#9467bd;stroke:#000000;stroke-width:0.25;" x="85.943727" xlink:href="#m9aa8b38af7" y="96.594237"/>
     <use style="fill:#9467bd;stroke:#000000;stroke-width:0.25;" x="93.467495" xlink:href="#m9aa8b38af7" y="100.44"/>
     <use style="fill:#9467bd;stroke:#000000;stroke-width:0.25;" x="124.198646" xlink:href="#m9aa8b38af7" y="46.142011"/>
     <use style="fill:#9467bd;stroke:#000000;stroke-width:0.25;" x="114.059112" xlink:href="#m9aa8b38af7" y="48.71739"/>
     <use style="fill:#9467bd;stroke:#000000;stroke-width:0.25;" x="104.813912" xlink:href="#m9aa8b38af7" y="51.5489"/>
     <use style="fill:#9467bd;stroke:#000000;stroke-width:0.25;" x="96.573639" xlink:href="#m9aa8b38af7" y="54.618412"/>
     <use style="fill:#9467bd;stroke:#000000;stroke-width:0.25;" x="89.442393" xlink:href="#m9aa8b38af7" y="57.905083"/>
     <use style="fill:#9467bd;stroke:#000000;stroke-width:0.25;" x="83.516639" xlink:href="#m9aa8b38af7" y="61.385497"/>
     <use style="fill:#9467bd;stroke:#000000;stroke-width:0.25;" x="78.884117" xlink:href="#m9aa8b38af7" y="65.033824"/>
     <use style="fill:#9467bd;stroke:#000000;stroke-width:0.25;" x="75.622813" xlink:href="#m9aa8b38af7" y="68.822011"/>
     <use style="fill:#9467bd;stroke:#000000;stroke-width:0.25;" x="73.8" xlink:href="#m9aa8b38af7" y="72.72"/>
     <use style="fill:#9467bd;stroke:#000000;stroke-width:0.25;" x="73.471373" xlink:href="#m9aa8b38af7" y="76.695966"/>
     <use style="fill:#9467bd;stroke:#000000;stroke-width:0.25;" x="74.680264" xlink:href="#m9aa8b38af7" y="80.716573"/>
     <use style="fill:#9467bd;stroke:#000000;stroke-width:0.25;" x="77.456969" xlink:href="#m9aa8b38af7" y="84.747257"/>
     <use style="fill:#9467bd;stroke:#000000;stroke-width:0.25;" x="81.818181" xlink:href="#m9aa8b38af7" y="88.752522"/>
     <use style="fill:#9467bd;stroke:#000000;stroke-width:0.25;" x="87.766539" xlink:href="#m9aa8b38af7" y="92.696247"/>
     <use style="fill:#9467bd;stroke:#000000;stroke-width:0.25;" x="95.290308" xlink:href="#m9aa8b38af7" y="96.542011"/>
     <use style="fill:#9467bd;stroke:#000000;stroke-width:0.25;" x="124.527273" xlink:href="#m9aa8b38af7" y="42.166045"/>
     <use style="fill:#9467bd;stroke:#000000;stroke-width:0.25;" x="114.387739" xlink:href="#m9aa8b38af7" y="44.741424"/>
     <use style="fill:#9467bd;stroke:#000000;stroke-width:0.25;" x="105.142539" xlink:href="#m9aa8b38af7" y="47.572935"/>
     <use style="fill:#9467bd;stroke:#000000;stroke-width:0.25;" x="96.902266" xlink:href="#m9aa8b38af7" y="50.642446"/>
     <use style="fill:#9467bd;stroke:#000000;stroke-width:0.25;" x="89.77102" xlink:href="#m9aa8b38af7" y="53.929118"/>
     <use style="fill:#9467bd;stroke:#000000;stroke-width:0.25;" x="83.845266" xlink:href="#m9aa8b38af7" y="57.409532"/>
     <use style="fill:#9467bd;stroke:#000000;stroke-width:0.25;" x="79.212744" xlink:href="#m9aa8b38af7" y="61.057858"/>
     <use style="fill:#9467bd;stroke:#000000;stroke-width:0.25;" x="75.95144" xlink:href="#m9aa8b38af7" y="64.846045"/>
     <use style="fill:#9467bd;stroke:#000000;stroke-width:0.25;" x="74.128627" xlink:href="#m9aa8b38af7" y="68.744034"/>
     <use style="fill:#9467bd;stroke:#000000;stroke-width:0.25;" x="73.8" xlink:href="#m9aa8b38af7" y="72.72"/>
     <use style="fill:#9467bd;stroke:#000000;stroke-width:0.25;" x="75.008891" xlink:href="#m9aa8b38af7" y="76.740607"/>
     <use style="fill:#9467bd;stroke:#000000;stroke-width:0.25;" x="77.785596" xlink:href="#m9aa8b38af7" y="80.771292"/>
     <use style="fill:#9467bd;stroke:#000000;stroke-width:0.25;" x="82.146808" xlink:href="#m9aa8b38af7" y="84.776557"/>
     <use style="fill:#9467bd;stroke:#000000;stroke-width:0.25;" x="88.095166" xlink:href="#m9aa8b38af7" y="88.720282"/>
     <use style="fill:#9467bd;stroke:#000000;stroke-width:0.25;" x="95.618935" xlink:href="#m9aa8b38af7" y="92.566045"/>
     <use style="fill:#9467bd;stroke:#000000;stroke-width:0.25;" x="123.318381" xlink:href="#m9aa8b38af7" y="38.145438"/>
     <use style="fill:#9467bd;stroke:#000000;stroke-width:0.25;" x="113.178848" xlink:href="#m9aa8b38af7" y="40.720817"/>
     <use style="fill:#9467bd;stroke:#000000;stroke-width:0.25;" x="103.933648" xlink:href="#m9aa8b38af7" y="43.552327"/>
     <use style="fill:#9467bd;stroke:#000000;stroke-width:0.25;" x="95.693375" xlink:href="#m9aa8b38af7" y="46.621839"/>
     <use style="fill:#9467bd;stroke:#000000;stroke-width:0.25;" x="88.562129" xlink:href="#m9aa8b38af7" y="49.908511"/>
     <use style="fill:#9467bd;stroke:#000000;stroke-width:0.25;" x="82.636375" xlink:href="#m9aa8b38af7" y="53.388925"/>
     <use style="fill:#9467bd;stroke:#000000;stroke-width:0.25;" x="78.003853" xlink:href="#m9aa8b38af7" y="57.037251"/>
     <use style="fill:#9467bd;stroke:#000000;stroke-width:0.25;" x="74.742548" xlink:href="#m9aa8b38af7" y="60.825438"/>
     <use style="fill:#9467bd;stroke:#000000;stroke-width:0.25;" x="72.919736" xlink:href="#m9aa8b38af7" y="64.723427"/>
     <use style="fill:#9467bd;stroke:#000000;stroke-width:0.25;" x="72.591109" xlink:href="#m9aa8b38af7" y="68.699393"/>
     <use style="fill:#9467bd;stroke:#000000;stroke-width:0.25;" x="73.8" xlink:href="#m9aa8b38af7" y="72.72"/>
     <use style="fill:#9467bd;stroke:#000000;stroke-width:0.25;" x="76.576705" xlink:href="#m9aa8b38af7" y="76.750685"/>
     <use style="fill:#9467bd;stroke:#000000;stroke-width:0.25;" x="80.937917" xlink:href="#m9aa8b38af7" y="80.75595"/>
     <use style="fill:#9467bd;stroke:#000000;stroke-width:0.25;" x="86.886275" xlink:href="#m9aa8b38af7" y="84.699674"/>
     <use style="fill:#9467bd;stroke:#000000;stroke-width:0.25;" x="94.410044" xlink:href="#m9aa8b38af7" y="88.545438"/>
     <use style="fill:#9467bd;stroke:#000000;stroke-width:0.25;" x="120.541676" xlink:href="#m9aa8b38af7" y="34.114753"/>
     <use style="fill:#9467bd;stroke:#000000;stroke-width:0.25;" x="110.402143" xlink:href="#m9aa8b38af7" y="36.690133"/>
     <use style="fill:#9467bd;stroke:#000000;stroke-width:0.25;" x="101.156943" xlink:href="#m9aa8b38af7" y="39.521643"/>
     <use style="fill:#9467bd;stroke:#000000;stroke-width:0.25;" x="92.91667" xlink:href="#m9aa8b38af7" y="42.591154"/>
     <use style="fill:#9467bd;stroke:#000000;stroke-width:0.25;" x="85.785424" xlink:href="#m9aa8b38af7" y="45.877826"/>
     <use style="fill:#9467bd;stroke:#000000;stroke-width:0.25;" x="79.85967" xlink:href="#m9aa8b38af7" y="49.35824"/>
     <use style="fill:#9467bd;stroke:#000000;stroke-width:0.25;" x="75.227148" xlink:href="#m9aa8b38af7" y="53.006566"/>
     <use style="fill:#9467bd;stroke:#000000;stroke-width:0.25;" x="71.965843" xlink:href="#m9aa8b38af7" y="56.794753"/>
     <use style="fill:#9467bd;stroke:#000000;stroke-width:0.25;" x="70.143031" xlink:href="#m9aa8b38af7" y="60.692743"/>
     <use style="fill:#9467bd;stroke:#000000;stroke-width:0.25;" x="69.814404" xlink:href="#m9aa8b38af7" y="64.668708"/>
     <use style="fill:#9467bd;stroke:#000000;stroke-width:0.25;" x="71.023295" xlink:href="#m9aa8b38af7" y="68.689315"/>
     <use style="fill:#9467bd;stroke:#000000;stroke-width:0.25;" x="73.8" xlink:href="#m9aa8b38af7" y="72.72"/>
     <use style="fill:#9467bd;stroke:#000000;stroke-width:0.25;" x="78.161212" xlink:href="#m9aa8b38af7" y="76.725265"/>
     <use style="fill:#9467bd;stroke:#000000;stroke-width:0.25;" x="84.10957" xlink:href="#m9aa8b38af7" y="80.66899"/>
     <use style="fill:#9467bd;stroke:#000000;stroke-width:0.25;" x="91.633338" xlink:href="#m9aa8b38af7" y="84.514753"/>
     <use style="fill:#9467bd;stroke:#000000;stroke-width:0.25;" x="116.180465" xlink:href="#m9aa8b38af7" y="30.109488"/>
     <use style="fill:#9467bd;stroke:#000000;stroke-width:0.25;" x="106.040931" xlink:href="#m9aa8b38af7" y="32.684868"/>
     <use style="fill:#9467bd;stroke:#000000;stroke-width:0.25;" x="96.795731" xlink:href="#m9aa8b38af7" y="35.516378"/>
     <use style="fill:#9467bd;stroke:#000000;stroke-width:0.25;" x="88.555458" xlink:href="#m9aa8b38af7" y="38.585889"/>
     <use style="fill:#9467bd;stroke:#000000;stroke-width:0.25;" x="81.424212" xlink:href="#m9aa8b38af7" y="41.872561"/>
     <use style="fill:#9467bd;stroke:#000000;stroke-width:0.25;" x="75.498458" xlink:href="#m9aa8b38af7" y="45.352975"/>
     <use style="fill:#9467bd;stroke:#000000;stroke-width:0.25;" x="70.865936" xlink:href="#m9aa8b38af7" y="49.001301"/>
     <use style="fill:#9467bd;stroke:#000000;stroke-width:0.25;" x="67.604632" xlink:href="#m9aa8b38af7" y="52.789488"/>
     <use style="fill:#9467bd;stroke:#000000;stroke-width:0.25;" x="65.781819" xlink:href="#m9aa8b38af7" y="56.687478"/>
     <use style="fill:#9467bd;stroke:#000000;stroke-width:0.25;" x="65.453192" xlink:href="#m9aa8b38af7" y="60.663443"/>
     <use style="fill:#9467bd;stroke:#000000;stroke-width:0.25;" x="66.662083" xlink:href="#m9aa8b38af7" y="64.68405"/>
     <use style="fill:#9467bd;stroke:#000000;stroke-width:0.25;" x="69.438788" xlink:href="#m9aa8b38af7" y="68.714735"/>
     <use style="fill:#9467bd;stroke:#000000;stroke-width:0.25;" x="73.8" xlink:href="#m9aa8b38af7" y="72.72"/>
     <use style="fill:#9467bd;stroke:#000000;stroke-width:0.25;" x="79.748358" xlink:href="#m9aa8b38af7" y="76.663725"/>
     <use style="fill:#9467bd;stroke:#000000;stroke-width:0.25;" x="87.272127" xlink:href="#m9aa8b38af7" y="80.509488"/>
     <use style="fill:#9467bd;stroke:#000000;stroke-width:0.25;" x="110.232106" xlink:href="#m9aa8b38af7" y="26.165763"/>
     <use style="fill:#9467bd;stroke:#000000;stroke-width:0.25;" x="100.092573" xlink:href="#m9aa8b38af7" y="28.741143"/>
     <use style="fill:#9467bd;stroke:#000000;stroke-width:0.25;" x="90.847373" xlink:href="#m9aa8b38af7" y="31.572653"/>
     <use style="fill:#9467bd;stroke:#000000;stroke-width:0.25;" x="82.6071" xlink:href="#m9aa8b38af7" y="34.642165"/>
     <use style="fill:#9467bd;stroke:#000000;stroke-width:0.25;" x="75.475854" xlink:href="#m9aa8b38af7" y="37.928836"/>
     <use style="fill:#9467bd;stroke:#000000;stroke-width:0.25;" x="69.5501" xlink:href="#m9aa8b38af7" y="41.40925"/>
     <use style="fill:#9467bd;stroke:#000000;stroke-width:0.25;" x="64.917578" xlink:href="#m9aa8b38af7" y="45.057576"/>
     <use style="fill:#9467bd;stroke:#000000;stroke-width:0.25;" x="61.656273" xlink:href="#m9aa8b38af7" y="48.845763"/>
     <use style="fill:#9467bd;stroke:#000000;stroke-width:0.25;" x="59.833461" xlink:href="#m9aa8b38af7" y="52.743753"/>
     <use style="fill:#9467bd;stroke:#000000;stroke-width:0.25;" x="59.504834" xlink:href="#m9aa8b38af7" y="56.719718"/>
     <use style="fill:#9467bd;stroke:#000000;stroke-width:0.25;" x="60.713725" xlink:href="#m9aa8b38af7" y="60.740326"/>
     <use style="fill:#9467bd;stroke:#000000;stroke-width:0.25;" x="63.49043" xlink:href="#m9aa8b38af7" y="64.77101"/>
     <use style="fill:#9467bd;stroke:#000000;stroke-width:0.25;" x="67.851642" xlink:href="#m9aa8b38af7" y="68.776275"/>
     <use style="fill:#9467bd;stroke:#000000;stroke-width:0.25;" x="73.8" xlink:href="#m9aa8b38af7" y="72.72"/>
     <use style="fill:#9467bd;stroke:#000000;stroke-width:0.25;" x="81.323768" xlink:href="#m9aa8b38af7" y="76.565763"/>
     <use style="fill:#9467bd;stroke:#000000;stroke-width:0.25;" x="102.708338" xlink:href="#m9aa8b38af7" y="22.32"/>
     <use style="fill:#9467bd;stroke:#000000;stroke-width:0.25;" x="92.568804" xlink:href="#m9aa8b38af7" y="24.89538"/>
     <use style="fill:#9467bd;stroke:#000000;stroke-width:0.25;" x="83.323605" xlink:href="#m9aa8b38af7" y="27.72689"/>
     <use style="fill:#9467bd;stroke:#000000;stroke-width:0.25;" x="75.083331" xlink:href="#m9aa8b38af7" y="30.796401"/>
     <use style="fill:#9467bd;stroke:#000000;stroke-width:0.25;" x="67.952085" xlink:href="#m9aa8b38af7" y="34.083073"/>
     <use style="fill:#9467bd;stroke:#000000;stroke-width:0.25;" x="62.026331" xlink:href="#m9aa8b38af7" y="37.563487"/>
     <use style="fill:#9467bd;stroke:#000000;stroke-width:0.25;" x="57.393809" xlink:href="#m9aa8b38af7" y="41.211813"/>
     <use style="fill:#9467bd;stroke:#000000;stroke-width:0.25;" x="54.132505" xlink:href="#m9aa8b38af7" y="45"/>
     <use style="fill:#9467bd;stroke:#000000;stroke-width:0.25;" x="52.309692" xlink:href="#m9aa8b38af7" y="48.897989"/>
     <use style="fill:#9467bd;stroke:#000000;stroke-width:0.25;" x="51.981065" xlink:href="#m9aa8b38af7" y="52.873955"/>
     <use style="fill:#9467bd;stroke:#000000;stroke-width:0.25;" x="53.189956" xlink:href="#m9aa8b38af7" y="56.894562"/>
     <use style="fill:#9467bd;stroke:#000000;stroke-width:0.25;" x="55.966662" xlink:href="#m9aa8b38af7" y="60.925247"/>
     <use style="fill:#9467bd;stroke:#000000;stroke-width:0.25;" x="60.327873" xlink:href="#m9aa8b38af7" y="64.930512"/>
     <use style="fill:#9467bd;stroke:#000000;stroke-width:0.25;" x="66.276232" xlink:href="#m9aa8b38af7" y="68.874237"/>
     <use style="fill:#9467bd;stroke:#000000;stroke-width:0.25;" x="73.8" xlink:href="#m9aa8b38af7" y="72.72"/>
    </g>
   </g>
   <g id="patch_3">
    <path d="M 18 128.16 
L 18 17.28 
" style="fill:none;stroke:#000000;stroke-linecap:square;stroke-linejoin:miter;stroke-width:0.25;"/>
   </g>
   <g id="patch_4">
    <path d="M 129.6 128.16 
L 129.6 17.28 
" style="fill:none;stroke:#000000;stroke-linecap:square;stroke-linejoin:miter;stroke-width:0.25;"/>
   </g>
   <g id="patch_5">
    <path d="M 18 128.16 
L 129.6 128.16 
" style="fill:none;stroke:#000000;stroke-linecap:square;stroke-linejoin:miter;stroke-width:0.25;"/>
   </g>
   <g id="patch_6">
    <path d="M 18 17.28 
L 129.6 17.28 
" style="fill:none;stroke:#000000;stroke-linecap:square;stroke-linejoin:miter;stroke-width:0.25;"/>
   </g>
  </g>
 </g>
 <defs>
  <clipPath id="p3e4b2267ce">
   <rect height="110.88" width="111.6" x="18" y="17.28"/>
  </clipPath>
 </defs>
</svg>
